<svg width="40" height="40" viewBox="0 0 40 40" fill="none" xmlns="http://www.w3.org/2000/svg">
<g id="add-ellipse_svgrepo.com">
<path id="Vector" d="M18.3327 13.3334C18.3327 12.4129 19.0788 11.6667 19.9993 11.6667C20.9198 11.6667 21.666 12.4129 21.666 13.3334V18.3334H26.666C27.5865 18.3334 28.3327 19.0796 28.3327 20.0001C28.3327 20.9206 27.5865 21.6667 26.666 21.6667H21.666V26.6667C21.666 27.5872 20.9198 28.3334 19.9993 28.3334C19.0788 28.3334 18.3327 27.5872 18.3327 26.6667V21.6667H13.3327C12.4122 21.6667 11.666 20.9206 11.666 20.0001C11.666 19.0796 12.4122 18.3334 13.3327 18.3334H18.3327V13.3334Z" fill="#2C2015"/>
<path id="Vector_2" fill-rule="evenodd" clip-rule="evenodd" d="M38.3327 20.0001C38.3327 30.1252 30.1245 38.3334 19.9993 38.3334C9.87413 38.3334 1.66602 30.1252 1.66602 20.0001C1.66602 9.87487 9.87413 1.66675 19.9993 1.66675C30.1245 1.66675 38.3327 9.87487 38.3327 20.0001ZM5.01073 20.0001C5.01073 28.2781 11.7214 34.9888 19.9993 34.9888C28.2774 34.9888 34.988 28.2781 34.988 20.0001C34.988 11.7221 28.2774 5.01146 19.9993 5.01146C11.7214 5.01146 5.01073 11.7221 5.01073 20.0001Z" fill="#2C2015"/>
</g>
</svg>
