<svg width="40" height="40" viewBox="0 0 40 40" fill="none" xmlns="http://www.w3.org/2000/svg">
<g id="camera_svgrepo.com">
<path id="Vector" d="M20 26.6666C22.7614 26.6666 25 24.428 25 21.6666C25 18.9052 22.7614 16.6666 20 16.6666C17.2386 16.6666 15 18.9052 15 21.6666C15 24.428 17.2386 26.6666 20 26.6666Z" stroke="white" stroke-width="3.75"/>
<path id="Vector_2" d="M3.33398 22.2727C3.33398 17.1657 3.33398 14.612 4.58235 12.7777C5.12278 11.9836 5.81723 11.3017 6.62605 10.7711C7.82657 9.98355 9.32953 9.70205 11.6307 9.60143C12.7287 9.60143 13.6742 8.78447 13.8895 7.72727C14.2126 6.14148 15.6307 5 17.2778 5H22.7235C24.3705 5 25.7887 6.14148 26.1118 7.72727C26.3272 8.78447 27.2725 9.60143 28.3706 9.60143C30.6718 9.70205 32.1746 9.98355 33.3753 10.7711C34.184 11.3017 34.8785 11.9836 35.419 12.7777C36.6673 14.612 36.6673 17.1657 36.6673 22.2727C36.6673 27.3798 36.6673 29.9335 35.419 31.7678C34.8785 32.5618 34.184 33.2437 33.3753 33.7743C31.507 35 28.9062 35 23.7043 35H16.297C11.0952 35 8.49438 35 6.62605 33.7743C5.81723 33.2437 5.12278 32.5618 4.58235 31.7678C4.22975 31.2497 3.97675 30.6742 3.7952 30" stroke="white" stroke-width="3.75" stroke-linecap="round"/>
<path id="Vector_3" d="M31.6667 16.6666H30" stroke="white" stroke-width="3.75" stroke-linecap="round"/>
</g>
</svg>
