<svg width="41" height="41" viewBox="0 0 41 41" fill="none" xmlns="http://www.w3.org/2000/svg">
<g id="community">
<path id="Vector" d="M33.1327 28.2717C33.9575 27.2507 34.4101 25.9793 34.416 24.6667C34.416 23.1196 33.8014 21.6359 32.7075 20.542C31.6135 19.448 30.1298 18.8334 28.5827 18.8334C27.0356 18.8334 25.5519 19.448 24.4579 20.542C23.3639 21.6359 22.7493 23.1196 22.7493 24.6667C22.7553 25.9793 23.2079 27.2507 24.0327 28.2717C22.5039 29.0565 21.2014 30.2195 20.2493 31.6501C19.2973 30.2195 17.9948 29.0565 16.466 28.2717C17.2908 27.2507 17.7434 25.9793 17.7493 24.6667C17.7493 23.1196 17.1348 21.6359 16.0408 20.542C14.9468 19.448 13.4631 18.8334 11.916 18.8334C10.3689 18.8334 8.88519 19.448 7.79123 20.542C6.69726 21.6359 6.08268 23.1196 6.08268 24.6667C6.0886 25.9793 6.54121 27.2507 7.36601 28.2717C5.72696 29.1092 4.35085 30.3828 3.38924 31.9523C2.42763 33.5217 1.91784 35.3261 1.91602 37.1667C1.91602 37.6088 2.09161 38.0327 2.40417 38.3453C2.71673 38.6578 3.14065 38.8334 3.58268 38.8334H36.916C37.358 38.8334 37.782 38.6578 38.0945 38.3453C38.4071 38.0327 38.5827 37.6088 38.5827 37.1667C38.5809 35.3261 38.0711 33.5217 37.1095 31.9523C36.1478 30.3828 34.7717 29.1092 33.1327 28.2717ZM11.916 22.1667C12.4105 22.1667 12.8938 22.3134 13.3049 22.5881C13.7161 22.8628 14.0365 23.2532 14.2257 23.71C14.4149 24.1669 14.4644 24.6695 14.368 25.1545C14.2715 25.6394 14.0334 26.0849 13.6838 26.4345C13.3342 26.7841 12.8887 27.0222 12.4037 27.1187C11.9188 27.2152 11.4161 27.1657 10.9593 26.9764C10.5025 26.7872 10.112 26.4668 9.83734 26.0557C9.56264 25.6445 9.41602 25.1612 9.41601 24.6667C9.41601 24.0037 9.67941 23.3678 10.1482 22.899C10.6171 22.4301 11.253 22.1667 11.916 22.1667ZM5.45935 35.5001C5.82767 34.0675 6.66195 32.7982 7.83085 31.8918C8.99975 30.9854 10.4369 30.4935 11.916 30.4935C13.3951 30.4935 14.8323 30.9854 16.0012 31.8918C17.1701 32.7982 18.0044 34.0675 18.3727 35.5001H5.45935ZM28.5827 22.1667C29.0771 22.1667 29.5605 22.3134 29.9716 22.5881C30.3827 22.8628 30.7032 23.2532 30.8924 23.71C31.0816 24.1669 31.1311 24.6695 31.0346 25.1545C30.9382 25.6394 30.7001 26.0849 30.3504 26.4345C30.0008 26.7841 29.5554 27.0222 29.0704 27.1187C28.5855 27.2152 28.0828 27.1657 27.626 26.9764C27.1692 26.7872 26.7787 26.4668 26.504 26.0557C26.2293 25.6445 26.0827 25.1612 26.0827 24.6667C26.0827 24.0037 26.3461 23.3678 26.8149 22.899C27.2838 22.4301 27.9196 22.1667 28.5827 22.1667ZM22.126 35.5001C22.4943 34.0675 23.3286 32.7982 24.4975 31.8918C25.6664 30.9854 27.1035 30.4935 28.5827 30.4935C30.0618 30.4935 31.4989 30.9854 32.6678 31.8918C33.8367 32.7982 34.671 34.0675 35.0393 35.5001H22.126ZM10.2493 3.83341V13.8334C10.2493 14.2754 10.4249 14.6994 10.7375 15.0119C11.0501 15.3245 11.474 15.5001 11.916 15.5001H16.691L18.9693 18.2351C19.1258 18.4226 19.3215 18.5735 19.5427 18.6771C19.7639 18.7807 20.0051 18.8343 20.2493 18.8343C20.4936 18.8343 20.7348 18.7807 20.956 18.6771C21.1772 18.5735 21.3729 18.4226 21.5293 18.2351L23.8077 15.5001H28.5827C29.0247 15.5001 29.4486 15.3245 29.7612 15.0119C30.0738 14.6994 30.2493 14.2754 30.2493 13.8334V3.83341C30.2493 3.39139 30.0738 2.96746 29.7612 2.6549C29.4486 2.34234 29.0247 2.16675 28.5827 2.16675H11.916C11.474 2.16675 11.0501 2.34234 10.7375 2.6549C10.4249 2.96746 10.2493 3.39139 10.2493 3.83341ZM13.5827 5.50008H26.916V12.1667H23.0277C22.7832 12.1664 22.5417 12.2198 22.3202 12.3232C22.0987 12.4266 21.9027 12.5775 21.746 12.7651L20.2493 14.5634L18.7493 12.7651C18.593 12.5779 18.3975 12.4273 18.1766 12.3239C17.9558 12.2205 17.7149 12.1669 17.471 12.1667H13.5827V5.50008Z" fill="#95877A" fill-opacity="0.5"/>
</g>
</svg>
