<svg width="30" height="30" viewBox="0 0 30 30" fill="none" xmlns="http://www.w3.org/2000/svg">
<g id="edit-profile_svgrepo.com">
<path id="Vector" d="M2.5 26.25H10C10.3315 26.25 10.6495 26.1183 10.8839 25.8839C11.1183 25.6495 11.25 25.3315 11.25 25C11.25 24.6685 11.1183 24.3506 10.8839 24.1161C10.6495 23.8817 10.3315 23.75 10 23.75H3.83875C4.14207 21.6686 5.18392 19.7656 6.77406 18.3887C8.3642 17.0117 10.3965 16.2526 12.5 16.25C13.9718 16.2628 15.4018 15.7602 16.542 14.8294C17.6822 13.8985 18.4608 12.5981 18.7428 11.1535C19.0249 9.70888 18.7926 8.2111 18.0863 6.91974C17.38 5.62837 16.2442 4.62482 14.8756 4.08299C13.5071 3.54116 11.9921 3.49522 10.5932 3.95312C9.19437 4.41102 7.99979 5.3439 7.21653 6.59009C6.43327 7.83628 6.11068 9.31723 6.30469 10.7763C6.49869 12.2354 7.19706 13.5806 8.27875 14.5788C6.20401 15.4204 4.42721 16.8614 3.17526 18.7176C1.92331 20.5738 1.25302 22.7611 1.25 25C1.25 25.3315 1.3817 25.6495 1.61612 25.8839C1.85054 26.1183 2.16848 26.25 2.5 26.25ZM12.5 6.25002C13.2417 6.25002 13.9667 6.46996 14.5834 6.88201C15.2001 7.29407 15.6807 7.87974 15.9645 8.56496C16.2484 9.25018 16.3226 10.0042 16.1779 10.7316C16.0333 11.459 15.6761 12.1272 15.1517 12.6517C14.6272 13.1761 13.959 13.5333 13.2316 13.678C12.5042 13.8227 11.7502 13.7484 11.0649 13.4646C10.3797 13.1807 9.79404 12.7001 9.38199 12.0834C8.96993 11.4667 8.75 10.7417 8.75 10C8.75 9.00546 9.14509 8.05163 9.84835 7.34837C10.5516 6.64511 11.5054 6.25002 12.5 6.25002ZM25.2588 11.6163C25.0243 11.3819 24.7065 11.2503 24.375 11.2503C24.0435 11.2503 23.7257 11.3819 23.4912 11.6163L15.6788 19.4288C15.5422 19.5664 15.4391 19.7337 15.3775 19.9175L13.815 24.605C13.7524 24.7928 13.7354 24.9928 13.7652 25.1885C13.7951 25.3842 13.871 25.57 13.9867 25.7306C14.1024 25.8913 14.2546 26.0221 14.4308 26.1124C14.6069 26.2027 14.802 26.2499 15 26.25C15.1342 26.2498 15.2675 26.2283 15.395 26.1863L20.0825 24.6238C20.2667 24.5623 20.434 24.4587 20.5713 24.3213L28.3838 16.5088C28.6181 16.2744 28.7497 15.9565 28.7497 15.625C28.7497 15.2936 28.6181 14.9757 28.3838 14.7413L25.2588 11.6163ZM19.0087 22.345L16.9725 23.0238L17.6513 20.9875L24.375 14.2675L25.7325 15.625L19.0087 22.345Z" fill="#2C2015"/>
</g>
</svg>
