<svg width="41" height="41" viewBox="0 0 41 41" fill="none" xmlns="http://www.w3.org/2000/svg">
<g id="home">
<path id="Vector" d="M3.58398 20.8398C3.58398 17.0257 3.58398 15.1187 4.44932 13.5378C5.31465 11.9569 6.89557 10.9758 10.0574 9.01347L13.3907 6.9447C16.733 4.8704 18.4042 3.83325 20.2507 3.83325C22.0972 3.83325 23.7683 4.8704 27.1106 6.9447L30.444 9.01345C33.6058 10.9758 35.1867 11.9569 36.052 13.5378C36.9173 15.1187 36.9173 17.0257 36.9173 20.8398V23.3749C36.9173 29.8763 36.9173 33.1271 34.9646 35.1468C33.0121 37.1666 29.8693 37.1666 23.584 37.1666H16.9173C10.6319 37.1666 7.48923 37.1666 5.5366 35.1468C3.58398 33.1271 3.58398 29.8763 3.58398 23.3749V20.8398Z" stroke="#95877A" stroke-opacity="0.5" stroke-width="3.75"/>
<path id="Vector_2" d="M15.25 27.1667C16.6673 28.2172 18.391 28.8334 20.25 28.8334C22.109 28.8334 23.8327 28.2172 25.25 27.1667" stroke="#95877A" stroke-opacity="0.5" stroke-width="3.75" stroke-linecap="round"/>
</g>
</svg>
