<svg width="40" height="40" viewBox="0 0 40 40" fill="none" xmlns="http://www.w3.org/2000/svg">
<g id="idea_svgrepo.com" clip-path="url(#clip0_206_935)">
<g id="Group">
<g id="Group_2">
<path id="Vector" d="M20.0008 7.42004C13.9091 7.42004 8.95312 12.3759 8.95312 18.4677C8.95312 22.1453 10.8052 25.5911 13.8327 27.6338V35.0581C13.8327 35.7698 14.4096 36.3467 15.1213 36.3467H15.2302C15.7987 38.4487 17.7215 40.0002 20.0008 40.0002C22.2801 40.0002 24.2029 38.4488 24.7714 36.3467H24.8803C25.592 36.3467 26.1689 35.7698 26.1689 35.0581V27.6338C29.1964 25.5912 31.0486 22.1453 31.0486 18.4677C31.0485 12.376 26.0925 7.42004 20.0008 7.42004ZM20.0008 37.423C19.1717 37.423 18.441 36.9942 18.0186 36.3467H21.9829C21.5607 36.9942 20.8299 37.423 20.0008 37.423ZM23.5917 33.7696H16.4098V31.6795H23.5917V33.7696ZM24.2351 25.8055C23.8369 26.0358 23.5917 26.4609 23.5917 26.9209V29.1024H16.4098V26.9209C16.4098 26.4609 16.1646 26.0358 15.7664 25.8055C13.1534 24.2939 11.5302 21.4823 11.5302 18.4677C11.5302 13.797 15.33 9.99724 20.0007 9.99724C24.6714 9.99724 28.4713 13.7969 28.4713 18.4676C28.4714 21.4822 26.8482 24.2939 24.2351 25.8055Z" fill="#2C2015"/>
</g>
</g>
<g id="Group_3">
<g id="Group_4">
<path id="Vector_2" d="M22.6239 17.1795H19.933L21.9274 14.4847C22.3509 13.9127 22.2302 13.1058 21.6583 12.6825C21.0863 12.2591 20.2794 12.3796 19.856 12.9516L16.3404 17.7015C15.7115 18.5512 16.3207 19.7566 17.3762 19.7566H20.0672L18.0727 22.4514C17.6493 23.0234 17.7698 23.8303 18.3419 24.2537C18.914 24.6772 19.7208 24.5565 20.1441 23.9845L23.6598 19.2347C24.2882 18.3855 23.68 17.1795 22.6239 17.1795Z" fill="#2C2015"/>
</g>
</g>
<g id="Group_5">
<g id="Group_6">
<path id="Vector_3" d="M5.66618 17.1814H2.81985C2.1082 17.1814 1.53125 17.7583 1.53125 18.47C1.53125 19.1816 2.1082 19.7586 2.81985 19.7586H5.66618C6.37782 19.7586 6.95478 19.1816 6.95478 18.47C6.95478 17.7583 6.37782 17.1814 5.66618 17.1814Z" fill="#2C2015"/>
</g>
</g>
<g id="Group_7">
<g id="Group_8">
<path id="Vector_4" d="M10.7748 7.42253L8.76217 5.40987C8.25905 4.90667 7.44311 4.90667 6.9399 5.40987C6.4367 5.91308 6.4367 6.72894 6.9399 7.23214L8.95256 9.2448C9.45569 9.74801 10.2716 9.74809 10.7748 9.2448C11.278 8.7416 11.278 7.92574 10.7748 7.42253Z" fill="#2C2015"/>
</g>
</g>
<g id="Group_9">
<g id="Group_10">
<path id="Vector_5" d="M19.9995 0C19.2879 0 18.7109 0.576954 18.7109 1.2886V4.13493C18.7109 4.84657 19.2879 5.42353 19.9995 5.42353C20.7112 5.42353 21.2881 4.84657 21.2881 4.13493V1.2886C21.2881 0.576954 20.7112 0 19.9995 0Z" fill="#2C2015"/>
</g>
</g>
<g id="Group_11">
<g id="Group_12">
<path id="Vector_6" d="M37.1818 17.1814H34.3355C33.6238 17.1814 33.0469 17.7583 33.0469 18.47C33.0469 19.1816 33.6238 19.7586 34.3355 19.7586H37.1818C37.8934 19.7586 38.4704 19.1816 38.4704 18.47C38.4704 17.7583 37.8935 17.1814 37.1818 17.1814Z" fill="#2C2015"/>
</g>
</g>
<g id="Group_13">
<g id="Group_14">
<path id="Vector_7" d="M33.0601 5.40997C32.557 4.90684 31.7411 4.90676 31.2378 5.40997L29.2251 7.42263C28.7219 7.92583 28.7219 8.74169 29.2251 9.2449C29.7282 9.74802 30.544 9.74802 31.0473 9.2449L33.0601 7.23224C33.5633 6.72903 33.5633 5.91317 33.0601 5.40997Z" fill="#2C2015"/>
</g>
</g>
</g>
<defs>
<clipPath id="clip0_206_935">
<rect width="40" height="40" fill="white"/>
</clipPath>
</defs>
</svg>
