<svg width="30" height="30" viewBox="0 0 30 30" fill="none" xmlns="http://www.w3.org/2000/svg">
<g id="notification-bell_svgrepo.com">
<g id="style=linear">
<g id="notification-bell">
<path id="vector" d="M18.5907 24.4929C18.5907 24.872 18.4937 25.2475 18.3053 25.5979C18.1168 25.9483 17.8407 26.2665 17.4926 26.5348C17.1443 26.8029 16.731 27.0155 16.2761 27.1607C15.8212 27.3058 15.3336 27.3805 14.8412 27.3805C14.3488 27.3805 13.8613 27.3058 13.4063 27.1607C12.9515 27.0155 12.5381 26.8029 12.19 26.5348C11.8418 26.2665 11.5656 25.9483 11.3772 25.5979C11.1888 25.2475 11.0918 24.872 11.0918 24.4929" stroke="#2C2015" stroke-width="3.75" stroke-linecap="round"/>
<path id="vector_2" d="M24.5178 16.6758L24.8485 17.3893C26.1104 20.1105 24.467 23.2911 21.5175 23.8362L21.3173 23.8732C17.036 24.6646 12.6459 24.6646 8.36462 23.8732C5.39098 23.3236 3.81779 20.0337 5.25674 17.3741L5.53975 16.851C6.31247 15.4227 6.71712 13.8243 6.71712 12.2005V10.5489C6.71712 7.76914 8.29042 5.22888 10.779 3.99044C13.3469 2.71259 16.3559 2.66913 18.9595 3.87227L19.2154 3.99044C21.8823 5.22279 23.5898 7.89278 23.5898 10.8306V12.4689C23.5898 13.922 23.9064 15.3576 24.5178 16.6758Z" stroke="#2C2015" stroke-width="3.75"/>
</g>
</g>
</g>
</svg>
