<svg width="30" height="30" viewBox="0 0 30 30" fill="none" xmlns="http://www.w3.org/2000/svg">
<g id="nc-passwords_svgrepo.com">
<g id="Group">
<path id="Vector" d="M14.9853 26.5625C19.1193 26.5625 22.4706 23.3614 22.4706 19.4127C22.4706 15.4639 19.1193 12.2628 14.9853 12.2628C10.8513 12.2628 7.5 15.4639 7.5 19.4127C7.5 23.3614 10.8513 26.5625 14.9853 26.5625Z" stroke="#2C2015" stroke-opacity="0.8" stroke-width="3.75" stroke-linecap="round"/>
<path id="Vector_2" d="M9.94141 13.9147V7.62752C11.2453 1.9508 18.578 2.13158 20.3155 7.62752V14.1197" stroke="#2C2015" stroke-opacity="0.8" stroke-width="3.75" stroke-linecap="round"/>
<path id="Vector_3" d="M15.0316 19.867C16.0651 19.867 16.903 19.0667 16.903 18.0795C16.903 17.0923 16.0651 16.292 15.0316 16.292C13.998 16.292 13.1602 17.0923 13.1602 18.0795C13.1602 19.0667 13.998 19.867 15.0316 19.867Z" fill="#2C2015" fill-opacity="0.8"/>
<g id="Vector_4">
<path d="M15.0215 21.6902V18.3418V21.6902Z" fill="#2C2015" fill-opacity="0.8"/>
<path d="M15.0215 21.6902V18.3418" stroke="#2C2015" stroke-opacity="0.8" stroke-width="3.75" stroke-linecap="round"/>
</g>
</g>
</g>
</svg>
