<svg width="41" height="41" viewBox="0 0 41 41" fill="none" xmlns="http://www.w3.org/2000/svg">
<g id="profile-circle_svgrepo.com">
<path id="Vector" d="M20.9499 21.8C20.8333 21.7833 20.6833 21.7833 20.5499 21.8C17.6166 21.7 15.2832 19.3 15.2832 16.35C15.2832 13.3333 17.7166 10.8833 20.7499 10.8833C23.7666 10.8833 26.2166 13.3333 26.2166 16.35C26.1999 19.3 23.8833 21.7 20.9499 21.8Z" stroke="#95877A" stroke-opacity="0.5" stroke-width="3.75" stroke-linecap="round" stroke-linejoin="round"/>
<path id="Vector_2" d="M31.9842 32.8001C29.0176 35.5168 25.0842 37.1668 20.7509 37.1668C16.4176 37.1668 12.4842 35.5168 9.51758 32.8001C9.68424 31.2334 10.6842 29.7001 12.4676 28.5001C17.0342 25.4668 24.5009 25.4668 29.0342 28.5001C30.8176 29.7001 31.8176 31.2334 31.9842 32.8001Z" stroke="#95877A" stroke-opacity="0.5" stroke-width="3.75" stroke-linecap="round" stroke-linejoin="round"/>
<path id="Vector_3" d="M20.7507 37.1666C29.9553 37.1666 37.4173 29.7046 37.4173 20.4999C37.4173 11.2952 29.9553 3.83325 20.7507 3.83325C11.5459 3.83325 4.08398 11.2952 4.08398 20.4999C4.08398 29.7046 11.5459 37.1666 20.7507 37.1666Z" stroke="#95877A" stroke-opacity="0.5" stroke-width="3.75" stroke-linecap="round" stroke-linejoin="round"/>
</g>
</svg>
