<svg width="41" height="41" viewBox="0 0 41 41" fill="none" xmlns="http://www.w3.org/2000/svg">
<g id="scanner">
<path id="Vector" d="M5.75065 7.16667V15.5H9.08398V8.83333H15.7507V5.5H7.41732C6.97529 5.5 6.55137 5.67559 6.23881 5.98816C5.92625 6.30072 5.75065 6.72464 5.75065 7.16667ZM35.7507 15.5V7.16667C35.7507 6.72464 35.5751 6.30072 35.2625 5.98816C34.9499 5.67559 34.526 5.5 34.084 5.5H25.7507V8.83333H32.4173V15.5H35.7507ZM32.4173 32.1667H25.7507V35.5H34.084C34.526 35.5 34.9499 35.3244 35.2625 35.0118C35.5751 34.6993 35.7507 34.2754 35.7507 33.8333V25.5H32.4173V32.1667ZM15.7507 35.5V32.1667H9.08398V25.5H5.75065V33.8333C5.75065 34.2754 5.92625 34.6993 6.23881 35.0118C6.55137 35.3244 6.97529 35.5 7.41732 35.5H15.7507ZM4.08398 18.8333H37.4173V22.1667H4.08398V18.8333Z" fill="#95877A" fill-opacity="0.5"/>
</g>
</svg>
