<svg width="34" height="31" viewBox="0 0 34 31" fill="none" xmlns="http://www.w3.org/2000/svg">
<path id="Vector" d="M16.2115 15.459H5.35535M5.04763 16.8699L3.25405 22.1818C2.27172 25.091 1.78056 26.5456 2.13304 27.4413C2.43913 28.2193 3.09656 28.809 3.90779 29.0336C4.84194 29.292 6.25287 28.6625 9.07473 27.4036L27.1655 19.3324C29.9198 18.1034 31.297 17.4891 31.7226 16.6356C32.0925 15.894 32.0925 15.0238 31.7226 14.2822C31.297 13.4288 29.9198 12.8144 27.1655 11.5855L9.04353 3.50041C6.23016 2.24524 4.8235 1.61765 3.89028 1.8751C3.07981 2.09868 2.42245 2.68688 2.1153 3.46335C1.7616 4.35744 2.24752 5.80892 3.21937 8.71187L5.05112 14.1835C5.21802 14.682 5.30149 14.9314 5.33443 15.1863C5.36367 15.4126 5.36336 15.6416 5.33355 15.8678C5.29994 16.1227 5.21584 16.3717 5.04763 16.8699Z" stroke="#2C2015" stroke-width="3" stroke-linecap="round" stroke-linejoin="round"/>
</svg>
